<svg xmlns="http://www.w3.org/2000/svg" viewBox="0 0 1600 900" role="img" aria-labelledby="title">
  <title id="title">Abstract property management interface placeholder</title>
  <rect width="1600" height="900" fill="#e8e8eb"/>
  <rect x="118" y="92" width="1364" height="716" rx="38" fill="#fafbff" stroke="#c7c7cc" stroke-width="4"/>
  <rect x="118" y="92" width="1364" height="88" rx="38" fill="#2b2c2f"/>
  <circle cx="178" cy="136" r="12" fill="#9b9ba1"/>
  <circle cx="218" cy="136" r="12" fill="#d5d5d5"/>
  <circle cx="258" cy="136" r="12" fill="#707078"/>
  <rect x="170" y="232" width="266" height="524" rx="24" fill="#f1f1f4"/>
  <rect x="494" y="232" width="432" height="218" rx="24" fill="#f1f1f4"/>
  <rect x="984" y="232" width="446" height="218" rx="24" fill="#f1f1f4"/>
  <rect x="494" y="506" width="936" height="250" rx="24" fill="#f1f1f4"/>
  <path d="M550 694 650 614l92 36 110-116 142 76 124-116 126 96 130-42" fill="none" stroke="#707078" stroke-width="14" stroke-linecap="round" stroke-linejoin="round"/>
  <g fill="#9b9ba1">
    <rect x="550" y="280" width="232" height="18" rx="9"/>
    <rect x="550" y="324" width="312" height="12" rx="6"/>
    <rect x="1042" y="280" width="220" height="18" rx="9"/>
    <rect x="1042" y="324" width="300" height="12" rx="6"/>
    <rect x="220" y="278" width="166" height="14" rx="7"/>
    <rect x="220" y="338" width="128" height="14" rx="7"/>
    <rect x="220" y="398" width="180" height="14" rx="7"/>
  </g>
</svg>
